<svg width="1698" height="1920" viewBox="0 0 1698 1920" fill="none" xmlns="http://www.w3.org/2000/svg">
<g clip-path="url(#clip0_262_5)">
<path d="M782.934 17.6687L65.9581 431.652C25.0553 455.21 0 498.9 0 546.016V1373.98C0 1421.1 25.2695 1464.79 65.9581 1488.35L782.934 1902.33C823.837 1925.89 874.163 1925.89 915.066 1902.33L1632.04 1488.35C1672.94 1464.79 1698 1421.1 1698 1373.98V546.016C1698 498.9 1672.73 455.21 1632.04 431.652L915.066 17.6687C874.163 -5.88957 823.837 -5.88957 782.934 17.6687Z" fill="#2B2CA3"/>
<path d="M1455.05 962.059C1455.05 919.721 1454.84 879.269 1446.46 837.454C1442.26 816.18 1437.13 778.768 1424.24 752.673C1419 741.984 1412.4 733.18 1404.02 728.15C1340.83 690.318 1298.07 814.084 1291.58 856.632C1251.34 1123.66 1177.77 1238.52 1098.55 1322.98C1098.55 1322.98 1098.45 1323.09 1098.24 1323.4C1093.31 1328.64 1088.39 1333.67 1083.46 1338.7C1047.83 1373.18 950.587 1452.41 808.911 1454.4C695.633 1452.83 582.878 1409.23 496.426 1322.77C409.974 1236.32 366.382 1123.55 364.81 1010.27C366.801 868.684 446.127 771.327 480.498 735.696C485.528 730.77 490.558 725.845 495.798 720.919C496.112 720.709 496.217 720.605 496.217 720.605C580.783 641.273 695.528 567.704 962.534 527.462C1005.08 521.069 1128.73 478.207 1091.01 415.014C1085.98 406.63 1077.17 400.028 1066.49 394.788C1040.39 381.898 1002.88 376.763 981.71 372.571C940.004 364.292 899.555 364.082 857.219 364.082C525.768 364.082 256.98 632.889 256.98 964.365C256.98 1124.29 318.388 1273.73 430.828 1387.33H431.98V1388.48C545.573 1500.93 695.004 1562.34 854.914 1562.34C1186.26 1562.34 1455.15 1293.54 1455.15 962.059H1455.05Z" fill="url(#paint0_linear_262_5)"/>
<path d="M762.771 1241.13C778.929 1245.46 788.463 1241.71 792.982 1235.53C835.992 1176.74 969.883 862.162 997.819 831.491C1024.39 802.304 1065.1 814.415 1119.93 867.838C1120.66 868.551 1121.53 869.101 1122.49 869.452C1123.45 869.803 1124.47 869.947 1125.48 869.874C1126.5 869.801 1127.49 869.512 1128.39 869.028C1129.29 868.544 1130.07 867.875 1130.69 867.065L1184.21 797.355C1184.8 796.584 1185.07 795.618 1184.98 794.652C1184.89 793.685 1184.44 792.789 1183.71 792.143C1135.92 749.593 1076.07 716.54 1007.69 698.227C964.203 686.596 920.713 681.832 878.693 683.24C830.467 684.864 794.298 699.403 766.207 722.866C763.684 724.985 760.728 731.729 767.956 733.662C787.24 738.828 843.406 743.53 863.603 745.618C883.878 747.706 918.33 750.83 918.732 777.65C919.274 812.977 812.375 999.122 781.328 1046.36C750.219 1093.69 721.711 1143.55 706.9 1171.02C702.999 1178.26 700.353 1195.46 707.364 1205.28C714.236 1214.87 739.803 1234.98 762.771 1241.13Z" fill="#61A3F4"/>
</g>
<defs>
<linearGradient id="paint0_linear_262_5" x1="1226.29" y1="364.082" x2="74.103" y2="1856.75" gradientUnits="userSpaceOnUse">
<stop stop-color="#71D0FF"/>
<stop offset="1" stop-color="#2D12D3"/>
</linearGradient>
<clipPath id="clip0_262_5">
<rect width="1698" height="1920" fill="white"/>
</clipPath>
</defs>
</svg>
